if (_typeface_js && _typeface_js.loadFace) _typeface_js.loadFace({"glyphs":{"S":{"x_min":16.21875,"x_max":731.296875,"ha":749,"o":"m 63 364 q 128 330 89 343 q 205 314 166 317 q 278 316 244 310 q 330 333 311 321 q 345 364 348 345 q 306 406 341 382 q 215 443 268 424 q 115 493 161 462 q 41 573 69 524 q 25 697 13 621 q 91 840 46 774 q 197 956 137 906 q 327 1043 257 1007 q 467 1094 397 1078 q 600 1108 537 1110 q 712 1081 664 1105 q 727 1015 720 1052 q 729 938 733 978 q 706 862 725 899 q 645 798 687 824 q 553 837 604 828 q 456 832 501 846 q 381 784 411 819 q 354 691 351 748 q 411 627 373 652 q 496 581 450 602 q 588 539 542 561 q 669 483 634 516 q 720 400 704 450 q 722 272 736 349 q 619 111 690 168 q 461 30 549 55 q 277 4 373 5 q 96 8 181 2 q 39 98 58 43 q 16 208 20 153 q 25 307 13 263 q 63 364 37 351 "},"/":{"x_min":21.703125,"x_max":921.03125,"ha":950,"o":"m 260 0 q 193 -27 227 -21 q 126 -24 158 -32 q 67 4 94 -16 q 21 54 39 24 l 713 1093 q 781 1113 746 1113 q 846 1098 816 1113 q 897 1055 876 1083 q 921 988 918 1026 l 260 0 "},"K":{"x_min":32.5625,"x_max":800.390625,"ha":813,"o":"m 40 1044 q 96 1093 61 1077 q 170 1114 131 1110 q 248 1108 208 1117 q 316 1081 287 1100 l 305 756 l 590 1071 q 685 1101 647 1101 q 748 1085 724 1101 q 783 1041 771 1068 q 798 985 794 1013 q 799 935 801 957 q 793 907 797 912 l 455 550 l 782 164 q 770 93 786 122 q 727 46 754 65 q 666 18 699 27 q 604 7 633 9 q 553 9 575 5 q 529 21 531 13 l 294 333 l 317 25 q 282 10 305 18 q 229 -2 259 2 q 167 -8 199 -8 q 107 -2 135 -9 q 59 18 80 4 q 32 62 39 33 l 40 1044 "},"7":{"x_min":18.890625,"x_max":756.890625,"ha":779,"o":"m 458 35 q 300 -14 378 -16 q 143 32 222 -12 l 401 835 l 78 849 q 37 884 54 851 q 18 957 20 916 q 37 1039 17 998 q 107 1098 56 1079 l 756 1096 l 458 35 "},"d":{"x_min":17.546875,"x_max":663.296875,"ha":688,"o":"m 18 275 q 22 432 14 352 q 48 581 29 511 q 97 707 66 652 q 172 790 128 762 q 271 812 215 817 q 400 756 328 807 l 398 1048 q 413 1074 396 1060 q 459 1100 431 1089 q 520 1119 486 1112 q 583 1123 553 1125 q 635 1106 613 1120 q 663 1064 657 1093 l 663 58 q 587 8 629 21 q 505 -2 545 -4 q 434 8 466 -1 q 390 25 402 17 l 390 120 q 256 5 321 25 q 139 16 191 -14 q 55 118 88 47 q 18 275 23 188 m 227 419 q 252 312 229 345 q 304 288 276 279 q 356 348 332 297 q 379 495 379 400 q 356 554 377 530 q 309 575 336 577 q 259 537 283 572 q 227 419 236 501 "},",":{"x_min":29,"x_max":319.234375,"ha":336,"o":"m 82 -126 q 101 -113 86 -123 q 131 -85 116 -103 q 155 -45 146 -67 q 158 4 165 -23 q 68 12 100 -10 q 30 74 36 36 q 42 154 24 112 q 104 221 61 196 q 166 235 132 237 q 229 215 199 233 q 282 163 259 196 q 317 85 306 130 q 305 -16 324 32 q 252 -96 287 -65 q 173 -139 218 -128 q 82 -126 128 -149 "},"Y":{"x_min":8.140625,"x_max":1006.484375,"ha":1019,"o":"m 349 610 l 8 1024 q 40 1075 16 1056 q 96 1103 65 1094 q 162 1114 127 1112 q 225 1113 196 1116 q 272 1106 253 1110 q 293 1100 291 1102 l 507 796 l 667 1101 q 746 1116 695 1110 q 850 1117 797 1121 q 947 1096 903 1112 q 1006 1045 991 1079 l 718 621 l 710 55 q 644 4 686 25 q 551 -21 602 -16 q 446 -10 500 -25 q 344 47 392 4 l 349 610 "},"E":{"x_min":25.765625,"x_max":721.625,"ha":751,"o":"m 25 1101 l 693 1109 q 716 1062 708 1097 q 720 989 724 1028 q 697 916 716 950 q 642 873 679 883 l 282 868 l 295 728 l 526 721 q 549 689 539 716 q 560 630 558 663 q 557 566 562 598 q 537 519 552 535 l 283 511 l 288 301 l 675 303 q 709 227 702 267 q 710 150 716 187 q 691 82 705 113 q 660 31 676 51 l 25 18 l 25 1101 "},"y":{"x_min":-1.359375,"x_max":816.578125,"ha":836,"o":"m 257 17 l -1 737 q 46 784 10 756 q 124 827 81 811 q 215 839 168 843 q 297 794 261 835 l 393 271 l 550 804 q 619 819 576 815 q 706 816 663 823 q 781 788 748 809 q 816 729 813 767 l 385 -519 q 289 -557 344 -552 q 183 -554 234 -562 q 92 -527 131 -545 q 46 -497 54 -510 l 257 17 "},"\"":{"x_min":53.4375,"x_max":786.453125,"ha":811,"o":"m 344 670 q 231 653 287 641 q 134 705 176 666 q 69 804 92 744 q 55 929 47 864 q 96 1025 67 984 q 163 1088 126 1066 q 241 1113 200 1110 q 317 1096 282 1116 q 374 1045 352 1075 q 404 981 396 1014 q 407 915 412 948 q 383 859 402 883 q 330 827 363 836 q 249 830 297 817 q 252 768 241 796 q 282 719 264 740 q 320 685 301 698 q 344 670 339 672 m 721 640 q 609 623 664 611 q 511 675 553 636 q 446 774 469 714 q 432 899 424 834 q 474 995 444 954 q 540 1058 503 1036 q 618 1083 577 1081 q 694 1066 659 1086 q 751 1015 729 1045 q 781 951 773 984 q 784 885 789 918 q 760 830 779 853 q 707 797 740 807 q 626 800 674 788 q 630 738 618 766 q 659 689 641 710 q 697 655 678 668 q 721 640 716 642 "},"˙":{"x_min":26.40625,"x_max":279.546875,"ha":293,"o":"m 153 868 q 83 886 111 868 q 41 931 55 904 q 26 990 27 959 q 39 1050 25 1022 q 81 1098 52 1078 q 153 1123 109 1119 q 225 1103 196 1121 q 267 1057 253 1085 q 279 996 280 1029 q 263 935 278 964 q 221 888 249 907 q 153 868 193 869 "},"„":{"x_min":39.625,"x_max":772.640625,"ha":874,"o":"m 481 -67 q 505 -52 486 -65 q 543 -18 524 -39 q 573 30 561 2 q 576 92 584 58 q 495 89 529 80 q 442 122 462 99 q 418 177 423 145 q 421 243 413 210 q 451 307 430 276 q 508 358 473 337 q 584 375 543 378 q 662 350 625 373 q 729 287 699 328 q 770 191 758 246 q 756 66 778 126 q 691 -32 733 6 q 594 -84 649 -71 q 481 -67 538 -96 m 104 -97 q 128 -82 109 -94 q 166 -48 147 -69 q 196 0 184 -27 q 199 62 207 28 q 118 59 151 50 q 65 92 85 69 q 41 147 46 115 q 44 213 36 180 q 74 277 52 246 q 131 328 96 307 q 207 345 166 348 q 285 320 248 343 q 351 257 322 298 q 393 161 381 217 q 379 36 401 96 q 314 -62 356 -23 q 217 -113 272 -101 q 104 -97 161 -126 "},"g":{"x_min":26.421875,"x_max":686.75,"ha":705,"o":"m 413 36 q 246 2 318 -12 q 125 71 173 16 q 52 210 77 126 q 26 385 27 294 q 50 562 25 476 q 122 708 74 648 q 244 788 170 767 q 416 770 317 809 l 417 813 q 453 832 417 823 q 532 844 488 842 q 614 838 576 846 q 659 805 652 830 q 658 715 653 786 q 670 541 663 644 q 683 313 678 438 q 685 62 689 188 q 662 -180 680 -63 q 604 -385 644 -297 q 499 -521 565 -473 q 335 -558 434 -569 q 189 -505 250 -549 q 90 -398 128 -462 q 38 -258 52 -335 q 32 -104 24 -181 q 65 -45 43 -63 q 113 -23 86 -27 q 168 -29 141 -20 q 219 -50 196 -37 q 255 -78 241 -63 q 265 -101 268 -93 q 274 -175 265 -143 q 293 -229 282 -207 q 318 -261 305 -250 q 340 -272 330 -272 q 392 -242 374 -272 q 417 -164 411 -211 q 422 -64 424 -118 q 413 36 420 -10 m 271 480 q 267 374 261 417 q 288 306 274 330 q 323 278 303 282 q 360 291 343 274 q 390 347 378 309 q 402 448 402 386 q 383 533 402 504 q 339 564 363 561 q 293 545 314 567 q 271 480 272 523 "},"–":{"x_min":58.90625,"x_max":527.265625,"ha":572,"o":"m 128 238 q 86 258 101 240 q 63 303 70 276 q 59 359 56 329 q 70 415 62 389 q 92 457 78 440 q 124 474 107 474 l 476 480 q 516 436 504 472 q 526 359 529 400 q 512 284 524 318 q 478 242 499 249 l 128 238 "},"e":{"x_min":11.21875,"x_max":697.53125,"ha":699,"o":"m 596 333 q 651 318 626 337 q 689 266 676 298 q 695 198 701 234 q 657 130 690 161 q 518 33 588 63 q 383 0 448 2 q 260 20 318 -1 q 154 80 202 42 q 73 168 107 118 q 25 274 40 218 q 14 343 18 298 q 12 444 9 389 q 27 560 14 500 q 70 674 40 621 q 149 769 100 728 q 272 828 198 811 q 425 831 355 847 q 547 775 496 815 q 626 676 598 735 q 652 550 653 617 q 604 440 649 486 q 497 370 560 394 q 368 344 435 345 q 257 367 302 343 q 292 282 264 311 q 366 248 321 252 q 470 265 412 244 q 596 333 529 286 m 298 581 q 320 549 299 557 q 364 543 340 541 q 408 556 387 545 q 432 581 430 567 q 417 615 436 604 q 370 624 397 625 q 321 613 344 623 q 298 581 298 602 "},"J":{"x_min":20.1875,"x_max":820,"ha":677,"o":"m 295 0 q 154 31 208 0 q 69 115 100 63 q 29 229 39 166 q 20 354 18 291 q 30 470 21 416 q 47 556 39 523 q 110 586 78 579 q 169 592 142 594 q 217 581 196 590 q 244 564 237 572 q 241 505 244 539 q 237 436 238 472 q 237 368 236 401 q 245 311 238 335 q 266 276 252 287 q 306 272 280 264 q 343 305 328 272 q 368 389 359 337 q 378 505 377 440 q 373 633 379 569 q 354 754 367 697 q 320 851 340 812 l 195 847 q 158 874 181 849 q 121 938 134 900 q 115 1020 108 976 q 170 1098 123 1063 l 754 1106 q 804 1069 788 1100 q 819 999 820 1039 q 800 918 819 959 q 746 854 782 878 l 609 847 q 617 690 611 779 q 622 506 623 600 q 608 321 621 412 q 560 159 595 230 q 461 44 524 88 q 295 0 397 0 "},"|":{"x_min":55.609375,"x_max":358.109375,"ha":427,"o":"m 358 -61 q 316 -91 351 -77 q 235 -109 280 -105 q 143 -101 189 -112 q 66 -58 96 -90 l 55 1125 q 80 1167 58 1151 q 132 1190 101 1184 q 197 1195 162 1197 q 262 1181 231 1193 q 313 1148 293 1169 q 336 1096 333 1127 q 341 924 340 1018 q 343 727 343 830 q 345 517 344 625 q 347 307 345 409 q 351 110 348 204 q 358 -61 354 16 "},"˘":{"x_min":12.453125,"x_max":554.9375,"ha":568,"o":"m 13 1049 q 20 1087 9 1063 q 52 1129 31 1110 q 101 1154 73 1148 q 161 1136 130 1159 q 202 1074 169 1098 q 274 1047 234 1049 q 354 1068 314 1044 q 415 1148 393 1091 q 468 1157 442 1159 q 514 1140 495 1154 q 545 1104 534 1127 q 554 1053 556 1082 q 493 940 535 984 q 394 875 450 896 q 278 856 339 854 q 162 881 217 858 q 67 946 108 903 q 13 1049 27 988 "},"^":{"x_min":66.46875,"x_max":550.265625,"ha":612,"o":"m 546 625 q 549 601 552 618 q 536 564 546 584 q 510 526 526 545 q 473 498 493 507 q 428 494 453 489 q 378 526 404 499 l 322 625 l 257 514 q 209 496 238 496 q 151 510 180 496 q 99 550 123 523 q 66 614 75 577 l 215 831 q 263 867 233 857 q 326 875 294 877 q 385 861 358 873 q 424 831 412 849 l 546 625 "},"q":{"x_min":24.40625,"x_max":923.453125,"ha":716,"o":"m 405 29 q 293 0 354 1 q 178 26 233 0 q 81 107 123 52 q 25 246 39 162 q 29 388 21 314 q 59 530 37 462 q 113 655 80 598 q 193 749 146 713 q 299 794 240 785 q 432 777 359 804 l 432 822 q 476 845 446 832 q 543 859 507 857 q 613 850 579 862 q 672 800 648 838 l 633 -179 l 851 -52 q 892 -68 874 -44 q 918 -130 910 -92 q 921 -209 926 -168 q 896 -276 916 -250 l 495 -524 q 451 -532 469 -533 q 423 -515 434 -531 q 408 -462 413 -499 q 402 -361 402 -425 q 403 -201 401 -297 q 409 29 405 -105 l 405 29 m 250 404 q 263 289 241 328 q 314 250 284 250 q 370 289 343 250 q 401 406 398 328 q 377 501 397 470 q 333 529 358 531 q 284 495 307 527 q 250 404 260 463 "},"b":{"x_min":17.640625,"x_max":709.75,"ha":727,"o":"m 17 1051 q 60 1083 29 1064 q 128 1108 90 1101 q 203 1106 165 1116 q 268 1058 241 1097 l 274 710 q 400 811 332 782 q 530 820 467 841 q 640 728 592 800 q 708 527 689 656 q 685 259 716 374 q 593 80 653 145 q 451 9 533 16 q 275 65 368 2 l 274 27 q 224 3 257 13 q 153 -9 191 -6 q 80 -4 115 -12 q 25 23 44 2 l 17 1051 m 402 580 q 368 560 382 581 q 345 504 354 538 q 336 430 337 470 q 340 355 335 390 q 358 296 345 320 q 390 272 370 272 q 433 293 416 271 q 458 349 450 316 q 467 422 466 382 q 460 496 467 462 q 438 554 453 530 q 402 580 423 577 "},"D":{"x_min":35.265625,"x_max":809.21875,"ha":825,"o":"m 35 1075 q 206 1104 116 1106 q 385 1072 297 1102 q 552 988 473 1043 q 689 862 630 934 q 781 703 748 790 q 808 519 813 615 q 761 325 801 409 q 659 181 721 241 q 518 82 596 120 q 358 25 440 44 q 194 5 275 6 q 47 17 113 4 l 35 1075 m 293 288 q 394 303 348 284 q 474 353 440 321 q 529 428 508 385 q 554 519 549 472 q 504 689 565 621 q 293 782 443 756 l 293 288 "},"∙":{"x_min":44.046875,"x_max":297.1875,"ha":346,"o":"m 170 496 q 101 514 128 496 q 59 560 73 533 q 44 619 44 587 q 56 678 43 651 q 99 727 70 706 q 170 751 127 747 q 242 731 214 750 q 284 685 271 713 q 297 625 298 657 q 281 564 295 592 q 239 516 267 535 q 170 496 211 497 "},"z":{"x_min":11.21875,"x_max":704.015625,"ha":713,"o":"m 47 25 q 23 71 29 43 q 16 132 16 100 q 24 200 17 165 q 43 265 31 234 l 383 546 l 67 537 q 31 565 44 543 q 14 616 18 587 q 12 678 9 645 q 22 739 14 710 q 40 787 29 767 q 63 811 51 807 l 561 828 q 628 789 604 813 q 661 734 652 765 q 670 671 671 704 q 661 609 668 638 q 646 555 655 579 q 632 519 637 531 l 351 283 l 649 294 q 693 225 680 267 q 703 143 706 184 q 682 67 699 101 q 633 20 664 33 l 47 25 "},"ˆ":{"x_min":35.265625,"x_max":519.0625,"ha":568,"o":"m 515 983 q 518 960 520 978 q 505 923 515 942 q 478 884 495 903 q 442 856 462 865 q 397 852 421 847 q 347 884 373 857 l 291 983 l 226 872 q 178 854 207 854 q 120 868 149 854 q 68 908 92 881 q 35 972 44 935 l 184 1189 q 232 1225 202 1215 q 295 1233 263 1235 q 354 1219 326 1231 q 393 1189 381 1207 l 515 983 "},"w":{"x_min":35.265625,"x_max":1092.34375,"ha":1108,"o":"m 35 727 q 80 776 48 754 q 149 811 111 798 q 225 821 187 823 q 293 797 264 819 l 368 435 l 453 762 q 567 803 508 804 q 664 762 625 801 l 727 447 l 843 803 q 868 819 847 813 q 918 824 889 824 q 978 817 946 823 q 1037 799 1010 811 q 1079 771 1063 788 q 1091 733 1094 755 l 868 47 q 819 12 853 24 q 746 0 785 0 q 674 10 708 -1 q 626 46 640 21 l 541 381 l 417 52 q 362 21 400 29 q 285 14 325 12 q 212 27 245 16 q 172 58 180 39 l 35 727 "},"$":{"x_min":23.0625,"x_max":815.421875,"ha":833,"o":"m 297 12 q 220 27 259 17 q 142 52 181 36 q 76 145 96 101 q 56 223 56 188 q 72 282 55 257 q 116 317 89 306 q 165 270 138 287 q 219 244 192 253 q 268 231 245 234 q 305 227 291 229 l 316 492 q 215 531 267 508 q 121 587 164 554 q 50 663 78 619 q 23 766 23 708 q 46 867 23 819 q 110 954 69 915 q 210 1023 151 994 q 337 1066 268 1052 l 343 1203 q 372 1247 347 1233 q 428 1263 397 1262 q 491 1250 459 1264 q 538 1209 522 1237 l 533 1071 q 574 1065 546 1070 q 632 1055 602 1060 q 691 1045 663 1051 q 732 1036 718 1040 q 776 978 766 1014 q 779 906 786 941 q 754 849 773 872 q 714 835 736 827 q 677 845 704 839 q 621 855 651 850 q 565 864 592 859 q 526 868 538 868 l 516 625 q 562 607 541 615 q 603 591 584 598 q 744 495 694 549 q 808 382 793 440 q 806 265 823 324 q 746 157 789 207 q 638 69 704 107 q 492 16 573 32 l 488 -96 q 448 -126 470 -112 q 402 -143 427 -139 q 350 -139 378 -147 q 293 -103 322 -131 l 297 12 m 500 227 q 548 252 529 237 q 571 290 567 268 q 560 341 575 313 q 507 405 545 370 l 500 227 m 271 754 q 290 731 276 743 q 324 708 305 718 l 329 834 q 277 797 294 817 q 271 754 260 777 "},"\\":{"x_min":21.703125,"x_max":921.03125,"ha":950,"o":"m 21 988 q 45 1055 24 1026 q 96 1098 66 1083 q 161 1113 126 1113 q 229 1093 196 1113 l 921 54 q 874 4 902 24 q 815 -24 847 -16 q 749 -27 784 -32 q 682 0 714 -21 l 21 988 "},"’":{"x_min":81.671875,"x_max":437.59375,"ha":491,"o":"m 146 670 q 170 685 151 672 q 208 719 189 698 q 238 768 226 740 q 241 830 249 796 q 160 827 193 817 q 107 859 127 836 q 83 915 88 883 q 86 981 78 948 q 116 1045 94 1014 q 173 1096 138 1075 q 249 1113 208 1116 q 327 1088 290 1110 q 394 1025 364 1066 q 435 929 423 984 q 421 804 443 864 q 356 705 398 744 q 259 653 314 666 q 146 670 203 641 "},"~":{"x_min":62.6875,"x_max":740.40625,"ha":787,"o":"m 188 462 q 134 443 161 431 q 90 486 108 455 q 65 554 71 516 q 70 615 58 592 q 99 672 74 637 q 155 739 123 708 q 221 790 187 770 q 278 800 255 809 q 338 781 314 800 q 381 739 362 762 q 419 699 401 717 q 463 680 438 680 q 510 693 492 680 q 538 725 527 706 q 554 767 549 744 q 562 808 558 789 q 611 828 579 832 q 673 805 642 824 q 724 756 704 785 q 739 704 744 728 q 697 606 727 648 q 636 535 668 564 q 572 488 603 505 q 524 462 541 470 q 455 472 485 455 q 398 508 424 488 q 348 546 371 529 q 302 561 325 564 q 243 543 271 567 q 188 462 215 520 "},"-":{"x_min":58.90625,"x_max":527.265625,"ha":572,"o":"m 128 238 q 86 258 101 240 q 63 303 70 276 q 59 359 56 329 q 70 415 62 389 q 92 457 78 440 q 124 474 107 474 l 476 480 q 516 436 504 472 q 526 359 529 400 q 512 284 524 318 q 478 242 499 249 l 128 238 "},"Q":{"x_min":17.640625,"x_max":916.046875,"ha":918,"o":"m 17 310 q 29 471 17 382 q 69 650 42 560 q 138 825 96 740 q 241 974 180 910 q 382 1077 302 1039 q 564 1110 462 1115 q 690 1077 632 1117 q 793 968 748 1037 q 866 808 838 899 q 900 621 893 717 q 887 432 906 526 q 822 265 869 339 l 895 225 q 915 180 912 211 q 904 120 918 149 q 859 74 891 92 q 778 69 828 56 l 713 116 q 579 31 653 61 q 428 -3 505 1 q 277 10 351 -8 q 145 69 203 29 q 52 170 88 109 q 17 310 17 230 m 542 854 q 459 826 499 855 q 387 749 420 797 q 333 639 355 701 q 301 515 310 577 q 296 396 291 453 q 324 299 301 339 q 392 244 348 260 q 503 248 435 229 l 417 313 q 407 383 402 351 q 431 435 412 415 q 483 461 450 455 q 558 453 516 466 l 629 412 q 643 440 634 409 q 658 519 652 470 q 664 626 664 568 q 653 733 664 683 q 615 817 641 784 q 542 854 588 851 "},"M":{"x_min":23.0625,"x_max":998.34375,"ha":1009,"o":"m 23 1056 q 91 1106 51 1091 q 173 1121 131 1120 q 252 1113 215 1123 q 310 1091 288 1104 l 505 632 l 652 1077 q 690 1106 664 1096 q 748 1119 716 1116 q 813 1121 779 1123 q 875 1113 847 1119 q 922 1099 903 1108 q 942 1082 941 1090 l 998 90 q 919 14 965 33 q 828 -4 873 -5 q 748 11 784 -4 q 705 42 713 27 q 702 74 704 42 q 700 155 701 107 q 698 259 699 203 q 696 362 697 314 q 695 442 695 411 q 693 474 694 474 q 683 442 691 474 q 664 362 675 411 q 640 259 653 314 q 617 155 628 203 q 598 74 606 107 q 588 42 590 42 q 539 14 565 24 q 482 28 514 4 l 341 444 l 348 23 q 291 -17 329 0 q 208 -35 253 -35 q 117 -17 164 -36 q 33 51 70 1 l 23 1056 "},"C":{"x_min":41.796875,"x_max":908.8125,"ha":926,"o":"m 908 371 q 782 153 854 237 q 631 31 710 70 q 470 -6 552 -8 q 314 33 387 -4 q 180 138 240 70 q 84 299 120 206 q 42 507 48 393 q 70 752 36 622 q 154 916 93 842 q 295 1039 215 990 q 464 1106 374 1087 q 638 1107 554 1125 q 788 1028 721 1089 q 887 855 854 967 q 868 789 891 820 q 812 739 846 758 q 740 716 778 720 q 676 733 702 713 q 590 817 632 793 q 510 842 548 842 q 440 821 473 842 q 381 769 408 800 q 337 700 355 737 q 310 629 318 663 q 303 524 297 579 q 331 422 310 469 q 387 342 352 375 q 463 303 421 309 q 552 323 505 297 q 648 423 599 349 q 676 463 655 448 q 727 481 698 477 q 786 480 755 485 q 845 460 817 474 q 889 423 872 446 q 908 371 907 401 "},"[":{"x_min":32.5625,"x_max":493.09375,"ha":515,"o":"m 32 -229 l 32 1303 l 425 1300 q 460 1247 446 1277 q 477 1183 474 1218 q 468 1110 480 1148 q 425 1033 457 1072 l 267 1036 l 272 77 l 453 77 q 472 35 459 70 q 491 -46 485 0 q 487 -139 496 -92 q 443 -219 478 -187 l 32 -229 "},"L":{"x_min":36.625,"x_max":710.140625,"ha":728,"o":"m 43 2 q 40 103 42 33 q 38 264 39 172 q 37 465 37 356 q 36 681 36 573 q 36 890 36 789 q 36 1070 36 991 q 99 1108 54 1094 q 196 1122 145 1121 q 293 1110 248 1123 q 356 1070 339 1097 l 339 321 l 674 328 q 701 263 691 307 q 710 168 710 218 q 695 76 709 119 q 653 18 682 33 l 43 2 "},"!":{"x_min":66.46875,"x_max":339.109375,"ha":369,"o":"m 195 -23 q 128 -3 155 -23 q 86 45 101 16 q 70 108 71 74 q 82 172 69 142 q 124 222 96 202 q 198 244 153 242 q 273 225 244 244 q 316 177 302 206 q 328 113 329 147 q 311 48 326 78 q 266 -1 295 18 q 195 -23 237 -21 m 70 1072 q 117 1112 78 1098 q 201 1126 155 1125 q 286 1115 246 1127 q 339 1075 326 1102 l 328 344 q 265 309 299 321 q 196 296 230 297 q 127 304 161 295 q 66 330 93 313 l 70 1072 "}," ":{"x_min":0,"x_max":0,"ha":543},"{":{"x_min":43.40625,"x_max":680.21875,"ha":647,"o":"m 118 35 q 137 96 120 63 q 168 165 153 130 q 193 234 184 200 q 195 297 203 268 q 154 348 187 326 q 54 381 122 370 l 43 558 q 183 615 139 585 q 238 679 227 645 q 234 750 248 713 q 202 832 221 788 q 168 928 183 877 q 162 1040 153 979 q 227 1183 176 1125 q 348 1274 279 1241 q 496 1319 417 1307 q 644 1325 575 1330 q 673 1282 664 1317 q 679 1205 682 1247 q 663 1123 676 1163 q 626 1064 649 1083 q 571 1068 602 1067 q 510 1062 541 1070 q 451 1031 478 1053 q 405 967 423 1009 q 408 879 400 922 q 429 795 417 836 q 451 714 442 754 q 459 633 461 674 q 437 552 457 592 q 370 469 417 511 q 417 372 411 425 q 417 265 424 318 q 399 162 411 211 q 392 77 387 113 q 404 39 393 54 q 439 17 415 24 q 503 14 463 10 q 604 32 543 17 q 628 -2 613 28 q 653 -74 644 -32 q 658 -162 661 -116 q 625 -240 655 -207 q 510 -258 571 -253 q 392 -255 450 -263 q 284 -225 335 -246 q 194 -169 233 -204 q 134 -83 155 -134 q 118 35 113 -32 "},"X":{"x_min":29.546875,"x_max":1011.015625,"ha":1021,"o":"m 301 548 l 29 948 q 48 1003 27 973 q 104 1058 70 1033 q 178 1098 138 1082 q 253 1112 218 1113 l 501 779 l 682 1116 q 718 1131 693 1132 q 773 1119 744 1131 q 832 1085 803 1108 q 883 1034 862 1063 q 912 971 904 1005 q 904 902 919 937 l 740 613 l 983 286 q 1010 226 1014 259 q 980 162 1006 193 q 915 103 954 131 q 836 55 876 74 q 767 29 797 36 q 728 31 736 21 l 505 344 l 298 -18 q 255 -16 283 -24 q 196 5 227 -9 q 132 40 164 20 q 76 84 100 61 q 40 130 52 107 q 36 172 28 153 l 301 548 "},"P":{"x_min":35.265625,"x_max":805.5625,"ha":829,"o":"m 35 973 q 79 1026 44 1002 q 165 1067 113 1049 q 279 1094 217 1085 q 407 1104 341 1104 q 537 1095 473 1105 q 654 1063 600 1085 q 746 1006 708 1041 q 798 921 784 971 q 798 796 812 866 q 734 657 784 725 q 597 532 685 588 q 375 450 510 476 l 397 39 q 324 -5 374 8 q 222 -17 275 -18 q 126 -2 169 -16 q 71 33 82 10 l 35 973 m 349 725 q 408 731 371 725 q 482 749 446 736 q 544 784 518 762 q 571 839 571 805 q 526 874 562 868 q 450 876 491 880 q 345 857 402 870 l 349 725 "},"%":{"x_min":21.703125,"x_max":923.78125,"ha":952,"o":"m 708 -27 q 615 10 652 -24 q 560 93 577 44 q 544 198 542 142 q 571 300 546 253 q 642 375 595 347 q 762 398 690 404 q 859 360 822 394 q 912 277 896 325 q 922 173 927 229 q 891 72 916 118 q 819 -2 865 27 q 708 -27 773 -31 m 260 0 q 193 -27 227 -21 q 126 -24 158 -32 q 67 4 94 -16 q 21 54 39 24 l 713 1093 q 781 1113 746 1113 q 846 1098 816 1113 q 897 1055 876 1083 q 921 988 918 1026 l 260 0 m 741 246 q 701 227 717 246 q 683 185 686 208 q 693 143 680 162 q 735 124 705 124 q 759 143 747 124 q 775 185 771 162 q 773 227 779 208 q 741 246 766 246 m 37 838 q 62 944 37 899 q 124 1015 86 988 q 208 1052 162 1043 q 299 1051 255 1062 q 381 1009 344 1040 q 436 925 417 978 q 443 796 462 851 q 379 706 424 740 q 276 659 335 671 q 164 661 217 647 q 74 719 111 676 q 37 838 37 762 m 189 843 q 204 798 189 812 q 236 784 218 784 q 267 800 253 785 q 282 843 282 815 q 267 883 282 869 q 236 897 253 897 q 204 884 218 897 q 189 843 189 870 "},"#":{"x_min":75.3125,"x_max":1102.15625,"ha":1139,"o":"m 634 305 l 529 307 l 529 103 q 486 79 512 90 q 429 65 459 67 q 370 70 400 62 q 317 103 340 78 l 317 314 l 111 321 q 88 366 99 337 q 75 425 78 394 q 82 487 73 457 q 116 539 90 518 l 317 533 l 317 663 l 124 670 q 102 717 112 686 q 89 783 92 748 q 95 851 86 817 q 130 907 104 885 l 317 900 l 317 1068 q 352 1106 322 1094 q 417 1117 382 1117 q 485 1104 453 1117 q 529 1068 518 1091 l 529 893 l 634 891 l 634 1068 q 671 1106 640 1094 q 739 1117 702 1117 q 810 1104 777 1117 q 854 1068 843 1091 l 854 884 l 1055 877 q 1091 836 1081 870 q 1102 763 1102 803 q 1087 686 1101 722 q 1051 640 1074 649 l 854 647 l 854 516 l 1041 510 q 1078 472 1067 503 q 1088 404 1089 442 q 1074 334 1087 367 q 1037 291 1060 301 l 854 298 l 854 103 q 810 79 838 90 q 751 65 782 67 q 689 70 720 62 q 634 103 657 78 l 634 305 m 529 526 l 634 523 l 634 653 l 529 656 l 529 526 "},"_":{"x_min":50.828125,"x_max":908.046875,"ha":948,"o":"m 101 6 q 64 68 77 35 q 50 134 51 101 q 62 196 50 166 q 101 245 74 225 l 861 242 q 885 208 870 236 q 905 143 899 180 q 903 68 911 107 q 861 4 895 29 l 101 6 l 101 6 "},"+":{"x_min":74.609375,"x_max":739.390625,"ha":811,"o":"m 516 265 q 486 222 507 236 q 439 205 465 208 q 385 207 413 202 q 336 223 358 212 q 302 244 314 233 q 294 265 290 256 l 294 493 l 135 493 q 74 577 74 523 q 135 705 74 632 l 294 705 l 294 903 q 346 948 311 930 q 417 967 381 965 q 481 954 453 969 q 516 903 510 940 l 516 705 l 682 705 q 726 657 712 687 q 739 596 740 628 q 722 537 737 565 q 678 493 706 508 l 516 493 l 516 265 l 516 265 "},"‚":{"x_min":58.609375,"x_max":414.53125,"ha":491,"o":"m 123 -46 q 147 -30 128 -43 q 185 3 166 -17 q 215 52 203 24 q 218 113 226 80 q 137 111 170 101 q 84 143 104 120 q 60 199 65 166 q 63 265 55 231 q 93 328 71 298 q 150 379 115 359 q 226 397 185 400 q 304 372 267 394 q 370 309 341 349 q 412 212 400 268 q 398 88 420 147 q 333 -10 375 28 q 236 -62 291 -50 q 123 -46 180 -74 "},")":{"x_min":18.71875,"x_max":627.28125,"ha":648,"o":"m 48 132 q 156 207 99 155 q 261 324 214 259 q 339 460 309 389 q 362 594 368 531 q 330 714 355 659 q 271 812 305 769 q 200 888 238 855 q 128 942 161 921 q 69 975 94 964 q 37 987 44 987 q 20 1040 24 1005 q 22 1110 16 1075 q 45 1173 28 1146 q 90 1203 62 1200 q 285 1131 191 1192 q 453 982 379 1071 q 574 785 527 892 q 626 575 621 678 q 588 370 632 473 q 474 177 545 267 q 313 16 402 86 q 138 -92 223 -54 l 134 -92 q 102 -82 123 -88 q 63 -54 81 -75 q 38 10 46 -32 q 48 132 31 54 "},"'":{"x_min":81.671875,"x_max":437.59375,"ha":491,"o":"m 146 670 q 170 685 151 672 q 208 719 189 698 q 238 768 226 740 q 241 830 249 796 q 160 827 193 817 q 107 859 127 836 q 83 915 88 883 q 86 981 78 948 q 116 1045 94 1014 q 173 1096 138 1075 q 249 1113 208 1116 q 327 1088 290 1110 q 394 1025 364 1066 q 435 929 423 984 q 421 804 443 864 q 356 705 398 744 q 259 653 314 666 q 146 670 203 641 "},"}":{"x_min":0.703125,"x_max":637.53125,"ha":648,"o":"m 562 42 q 545 -76 565 -25 q 486 -162 524 -127 q 396 -219 447 -198 q 288 -248 345 -240 q 170 -252 230 -256 q 55 -233 109 -248 q 22 -155 25 -200 q 27 -67 18 -109 q 52 4 36 -25 q 75 39 67 35 q 177 21 137 24 q 241 24 217 17 q 276 46 265 31 q 288 84 287 61 q 281 169 293 120 q 263 271 269 218 q 263 379 256 325 q 310 476 269 432 q 243 558 263 518 q 221 640 223 599 q 229 720 219 680 q 250 802 238 760 q 271 886 263 843 q 275 973 279 929 q 229 1038 256 1015 q 170 1068 202 1060 q 109 1075 139 1077 q 54 1071 78 1074 q 17 1130 31 1090 q 1 1212 4 1170 q 7 1289 -1 1254 q 36 1332 16 1323 q 184 1325 105 1337 q 332 1281 263 1314 q 453 1190 401 1247 q 518 1047 504 1132 q 512 935 527 986 q 478 839 497 884 q 446 757 459 794 q 442 686 432 720 q 496 622 453 652 q 637 565 539 592 l 626 387 q 526 355 558 377 q 485 304 493 333 q 486 241 477 275 q 512 172 496 207 q 543 103 527 137 q 562 42 558 70 "},"˛":{"x_min":74.0625,"x_max":343.34375,"ha":332,"o":"m 272 -180 q 316 -188 298 -176 q 341 -221 335 -200 q 336 -265 347 -241 q 293 -306 325 -288 q 188 -301 231 -316 q 118 -255 145 -286 q 80 -183 90 -225 q 75 -95 70 -141 q 101 -5 81 -50 q 154 75 120 39 l 231 39 q 202 18 212 36 q 189 -24 192 0 q 191 -77 187 -48 q 206 -128 195 -105 q 233 -166 217 -151 q 272 -180 250 -181 "},"a":{"x_min":14.546875,"x_max":699.921875,"ha":713,"o":"m 420 101 q 305 34 359 51 q 204 27 250 17 q 120 67 157 36 q 58 141 82 97 q 22 236 33 184 q 16 341 10 288 q 63 526 25 440 q 157 672 101 613 q 282 756 212 731 q 423 760 351 781 l 423 807 q 451 829 428 820 q 503 840 473 838 q 566 841 533 843 q 629 831 600 839 q 677 808 657 823 q 699 773 697 793 l 699 65 q 673 23 695 39 q 621 0 651 8 q 556 -10 591 -9 q 493 -8 522 -12 q 444 4 465 -4 q 423 25 424 13 l 420 101 m 427 541 q 382 541 408 549 q 333 510 356 533 q 292 452 309 488 q 276 367 276 416 q 286 309 276 336 q 312 267 295 282 q 355 251 329 252 q 413 272 381 250 l 427 541 "},"T":{"x_min":18.984375,"x_max":835.6875,"ha":842,"o":"m 42 813 q 25 879 31 842 q 18 955 18 916 q 27 1029 18 994 q 51 1089 35 1064 l 789 1105 q 820 1070 807 1097 q 835 1003 834 1043 q 822 915 836 963 q 771 822 808 868 l 553 822 q 554 718 553 779 q 557 587 556 657 q 560 442 558 516 q 564 297 562 367 q 566 165 565 226 q 568 62 568 104 q 537 20 562 35 q 478 0 512 5 q 406 -2 444 -5 q 336 9 368 1 q 280 29 303 17 q 253 55 257 42 l 278 822 l 42 813 "},"=":{"x_min":63.03125,"x_max":655.75,"ha":695,"o":"m 113 531 q 76 593 89 560 q 63 659 63 626 q 74 720 62 691 q 113 770 86 750 l 609 770 q 632 735 618 763 q 653 671 647 708 q 651 596 659 634 q 609 531 642 557 l 113 531 m 113 217 q 76 278 89 245 q 63 344 63 311 q 74 406 62 377 q 113 455 86 435 l 609 455 q 632 421 618 448 q 653 356 647 393 q 651 281 659 320 q 609 217 642 242 l 113 217 "},"N":{"x_min":21.703125,"x_max":897.96875,"ha":928,"o":"m 21 1051 q 81 1081 42 1068 q 164 1099 120 1094 q 252 1100 208 1104 q 328 1079 297 1096 l 561 505 l 543 1085 q 625 1113 572 1105 q 733 1119 678 1121 q 834 1107 788 1117 q 897 1082 881 1097 l 887 52 q 806 0 857 12 q 704 -11 755 -13 q 613 4 653 -9 q 564 29 572 17 l 373 436 l 363 0 q 289 -16 339 -12 q 188 -19 240 -21 q 92 -8 137 -17 q 32 14 47 0 l 21 1051 "},"˚":{"x_min":27.125,"x_max":429.90625,"ha":464,"o":"m 27 1036 q 50 1139 27 1096 q 111 1209 74 1182 q 193 1244 147 1235 q 282 1243 238 1253 q 360 1202 325 1233 q 415 1120 396 1171 q 421 995 440 1049 q 359 907 402 941 q 259 862 316 873 q 150 864 202 850 q 63 921 99 878 q 27 1036 27 963 m 174 1041 q 189 997 174 1011 q 219 984 203 983 q 250 999 236 984 q 264 1041 264 1013 q 250 1080 264 1067 q 219 1093 236 1093 q 189 1080 203 1093 q 174 1041 174 1067 "},"⁄":{"x_min":21.703125,"x_max":921.03125,"ha":950,"o":"m 260 0 q 193 -27 227 -21 q 126 -24 158 -32 q 67 4 94 -16 q 21 54 39 24 l 713 1093 q 781 1113 746 1113 q 846 1098 816 1113 q 897 1055 876 1083 q 921 988 918 1026 l 260 0 "},"2":{"x_min":23.71875,"x_max":725.859375,"ha":735,"o":"m 51 2 q 23 149 23 75 q 67 272 24 222 q 240 421 161 339 q 375 583 318 504 q 460 727 431 663 q 484 820 489 792 q 444 847 469 845 q 391 836 419 849 q 333 801 363 824 q 278 751 303 778 q 233 697 253 724 q 207 649 214 670 q 162 632 188 626 q 113 662 137 638 q 72 722 89 686 q 56 796 55 758 q 131 950 74 883 q 263 1057 188 1017 q 420 1106 337 1097 q 571 1087 503 1115 q 684 990 640 1059 q 725 807 728 922 q 680 639 712 718 q 604 492 649 560 q 505 369 560 424 q 393 274 451 314 l 701 290 q 716 227 710 263 q 722 152 722 191 q 714 75 722 113 q 685 5 705 37 l 51 2 "},"j":{"x_min":-277.453125,"x_max":413.96875,"ha":464,"o":"m -56 -70 q -57 -146 -63 -103 q -36 -225 -51 -189 q 1 -278 -21 -260 q 52 -275 24 -295 q 78 -224 67 -264 q 97 -125 89 -184 q 110 6 105 -66 q 117 158 115 80 q 118 312 119 236 q 114 455 118 389 q 105 571 111 520 q 92 647 100 622 q 103 684 85 667 q 150 712 120 701 q 218 728 180 724 q 292 727 256 732 q 356 706 328 722 q 396 660 385 690 q 406 501 401 591 q 413 314 412 412 q 408 113 415 215 q 386 -84 402 12 q 341 -265 370 -180 q 266 -413 311 -349 q 157 -514 221 -477 q 8 -550 93 -550 q -115 -520 -65 -548 q -199 -452 -166 -493 q -248 -360 -231 -411 q -271 -261 -264 -310 q -277 -168 -278 -211 q -272 -96 -276 -124 q -239 -32 -268 -52 q -174 -10 -210 -12 q -105 -25 -139 -9 q -56 -70 -71 -42 m 217 1104 q 280 1073 255 1097 q 318 1018 306 1049 q 329 952 330 987 q 314 891 328 918 q 271 848 299 864 q 200 839 242 832 q 134 857 162 836 q 90 908 105 877 q 72 975 74 940 q 85 1042 70 1011 q 132 1091 100 1072 q 217 1104 164 1109 "},"Z":{"x_min":19.578125,"x_max":931.203125,"ha":944,"o":"m 119 0 q 72 41 88 10 q 52 113 56 71 q 50 200 47 154 q 59 288 52 246 q 73 363 66 330 q 84 409 80 396 q 89 423 82 416 q 111 446 96 431 q 152 488 127 461 q 213 560 177 515 q 298 672 249 604 q 409 835 347 739 l 43 835 q 26 998 6 934 q 107 1097 46 1062 l 777 1105 q 830 1086 813 1104 q 849 1041 846 1068 q 843 981 851 1014 q 821 916 835 948 q 790 859 807 885 q 762 819 774 832 l 450 340 l 823 352 q 908 263 884 313 q 931 166 931 214 q 913 80 930 119 q 877 23 896 40 l 119 0 "},"u":{"x_min":39.921875,"x_max":674.15625,"ha":695,"o":"m 451 56 q 303 14 366 16 q 193 38 240 12 q 118 115 147 65 q 71 230 89 165 q 47 370 54 295 q 40 519 40 444 q 43 663 39 594 q 51 789 47 733 q 73 815 55 801 q 118 839 92 828 q 172 855 143 850 q 228 855 202 861 q 274 828 255 849 q 301 770 294 808 q 291 556 293 649 q 302 407 290 463 q 345 335 314 351 q 430 356 375 320 l 417 777 q 446 813 416 793 q 518 841 477 832 q 602 838 560 849 q 668 786 644 828 l 674 50 q 636 18 659 33 q 583 -4 613 4 q 520 -10 554 -12 q 451 6 486 -9 l 451 56 "},"1":{"x_min":26.78125,"x_max":704.71875,"ha":716,"o":"m 67 4 q 43 31 52 9 q 29 84 33 54 q 27 149 25 115 q 35 212 28 183 q 52 262 42 241 q 78 287 63 283 l 252 290 l 257 805 l 147 762 q 108 769 128 747 q 73 831 88 792 q 54 916 59 870 q 61 995 50 963 l 257 1117 l 500 1117 l 497 290 l 666 291 q 695 233 685 274 q 704 147 705 192 q 692 61 704 101 q 657 5 680 21 l 67 4 "},"˜":{"x_min":45.046875,"x_max":722.765625,"ha":747,"o":"m 170 887 q 117 868 143 855 q 72 910 90 880 q 47 979 54 941 q 52 1040 40 1017 q 81 1097 56 1062 q 137 1163 105 1132 q 203 1214 169 1195 q 260 1224 237 1234 q 320 1205 297 1224 q 364 1164 344 1186 q 402 1123 383 1142 q 446 1105 420 1105 q 492 1118 474 1105 q 520 1150 510 1131 q 536 1191 531 1169 q 545 1233 541 1214 q 593 1253 561 1257 q 655 1229 625 1249 q 706 1181 686 1209 q 721 1128 727 1152 q 680 1030 709 1072 q 618 959 651 988 q 554 912 585 930 q 507 887 523 895 q 437 896 467 880 q 380 933 406 912 q 330 971 354 953 q 284 986 307 988 q 225 968 253 991 q 170 887 198 945 "},"k":{"x_min":25.765625,"x_max":790.8125,"ha":804,"o":"m 33 1049 q 94 1091 54 1075 q 178 1110 134 1106 q 261 1107 222 1115 q 321 1079 301 1100 l 336 672 l 529 846 q 613 848 579 859 q 670 811 648 836 q 706 752 693 785 q 725 689 718 718 q 719 665 725 676 q 695 632 713 653 q 642 577 676 611 q 554 486 609 543 l 554 478 q 604 405 575 446 q 666 320 633 364 q 731 233 698 276 q 790 157 763 191 q 758 69 784 100 q 698 23 732 37 q 629 6 664 8 q 568 6 594 4 l 332 354 l 318 17 q 278 9 313 20 q 197 -7 242 -1 q 103 -3 151 -13 q 25 51 55 6 l 33 1049 "},"ˇ":{"x_min":35.265625,"x_max":519.0625,"ha":568,"o":"m 393 893 q 354 864 381 876 q 295 849 326 851 q 232 857 263 847 q 184 893 202 866 l 35 1110 q 68 1174 44 1147 q 120 1215 92 1201 q 178 1228 149 1228 q 226 1211 207 1228 l 291 1100 l 347 1199 q 397 1230 373 1226 q 442 1226 421 1235 q 478 1199 462 1218 q 505 1160 495 1180 q 518 1123 515 1140 q 515 1100 520 1105 l 393 893 "},"€":{"x_min":37.875,"x_max":1165.8125,"ha":1184,"o":"m 103 577 q 55 629 71 602 q 37 682 39 656 q 52 733 36 709 q 103 773 69 756 l 200 773 q 312 927 236 857 q 485 1043 389 996 q 688 1108 581 1089 q 889 1108 794 1127 q 1058 1030 984 1090 q 1165 861 1132 971 q 1146 794 1169 826 q 1090 744 1124 763 q 1018 722 1056 725 q 954 739 980 718 q 851 826 907 800 q 739 853 796 853 q 628 832 682 854 q 529 773 573 811 l 683 773 q 712 744 695 767 q 737 691 729 721 q 735 630 746 661 q 683 577 725 599 l 405 577 q 401 523 401 549 l 683 523 q 712 495 695 518 q 737 444 729 473 q 735 384 746 415 q 683 332 725 354 l 488 332 q 579 271 527 294 q 692 250 632 249 q 819 282 752 252 q 952 379 885 311 q 986 391 965 394 q 1029 372 1007 387 q 1070 330 1051 356 q 1100 276 1090 305 q 1107 216 1109 246 q 1083 161 1105 185 q 912 40 1002 82 q 733 -10 823 -1 q 558 0 644 -20 q 400 65 473 20 q 271 177 326 109 q 184 332 215 245 l 103 332 q 55 383 71 356 q 37 435 39 409 q 52 484 36 461 q 103 523 69 507 l 151 523 q 152 550 151 537 q 154 577 153 562 l 103 577 l 103 577 "},"<":{"x_min":51.546875,"x_max":678.390625,"ha":754,"o":"m 51 469 l 62 694 l 561 925 q 604 897 579 923 q 648 835 629 870 q 675 765 667 800 q 668 710 683 729 l 366 577 l 649 436 q 654 378 655 417 q 641 299 653 339 q 604 229 629 260 q 539 198 580 199 l 51 469 "},"t":{"x_min":0.625,"x_max":594.046875,"ha":608,"o":"m 153 603 l 40 598 q 14 630 25 604 q 1 690 4 655 q 6 767 -1 725 q 35 850 13 809 l 146 853 l 149 1063 q 189 1086 158 1074 q 259 1103 221 1098 q 338 1102 298 1108 q 406 1070 378 1096 l 411 853 l 538 857 q 567 815 552 847 q 590 744 583 784 q 592 666 596 704 q 560 606 587 628 l 411 607 l 412 9 q 335 -8 379 -2 q 249 -13 290 -14 q 181 -1 208 -12 q 153 31 153 9 l 153 603 "},"W":{"x_min":13.5625,"x_max":1227.578125,"ha":1241,"o":"m 463 33 q 341 4 411 4 q 200 21 272 4 l 13 1029 q 65 1074 27 1058 q 148 1100 103 1091 q 239 1109 193 1108 q 313 1106 284 1110 l 412 545 l 496 748 q 556 791 520 777 q 628 807 592 805 q 693 799 664 808 q 735 773 722 790 l 832 522 l 906 1064 q 936 1093 911 1083 q 996 1104 961 1102 q 1070 1100 1032 1106 q 1143 1079 1109 1093 q 1201 1042 1177 1064 q 1227 991 1224 1020 l 979 51 q 954 27 975 36 q 904 12 933 17 q 840 5 874 6 q 775 6 805 4 q 721 12 744 8 q 691 24 698 17 l 596 336 l 463 33 "},"v":{"x_min":25.625,"x_max":756.890625,"ha":773,"o":"m 25 697 q 35 733 24 712 q 65 775 46 754 q 109 811 84 796 q 162 831 134 827 q 220 822 191 835 q 276 773 249 809 l 402 416 l 500 803 q 560 831 522 823 q 639 832 599 839 q 712 803 679 826 q 756 737 746 779 l 534 59 q 479 16 514 28 q 408 8 444 5 q 339 25 371 10 q 294 59 307 39 l 25 697 "},">":{"x_min":81.234375,"x_max":708.0625,"ha":765,"o":"m 219 198 q 172 213 192 199 q 139 250 153 227 q 118 299 126 272 q 107 353 111 326 q 105 402 104 379 q 109 436 105 424 l 393 577 l 90 710 q 84 765 75 729 q 111 835 92 800 q 154 897 130 870 q 198 925 179 923 l 697 694 l 708 469 l 219 198 "},"s":{"x_min":9.796875,"x_max":571.375,"ha":590,"o":"m 43 52 q 12 121 17 86 q 13 187 6 155 q 35 243 20 218 q 65 283 50 268 q 96 261 69 272 q 162 240 124 249 q 238 230 199 231 q 304 238 278 229 q 337 271 330 248 q 314 340 343 295 q 283 360 309 349 q 223 383 257 370 q 150 415 188 397 q 81 460 112 434 q 31 521 50 486 q 17 603 13 556 q 65 714 24 664 q 171 795 107 765 q 318 830 236 826 q 489 805 401 835 q 518 755 512 789 q 517 688 523 721 q 497 631 511 655 q 467 611 484 607 q 409 620 434 621 q 369 614 385 619 q 347 600 354 609 q 340 583 340 591 q 350 553 341 564 q 374 534 359 542 q 408 516 389 526 q 451 493 428 507 q 539 408 511 457 q 571 309 568 360 q 552 206 573 257 q 494 111 531 154 q 405 37 457 67 q 295 -4 354 6 q 171 -3 236 -16 q 43 52 107 9 "},"B":{"x_min":33.90625,"x_max":952.0625,"ha":970,"o":"m 33 1005 q 147 1066 80 1043 q 290 1096 215 1089 q 440 1093 364 1104 q 579 1053 516 1082 q 685 974 641 1024 q 740 853 729 925 q 737 799 740 828 q 727 741 735 770 q 707 686 720 712 q 675 642 694 660 q 773 625 720 642 q 870 567 827 607 q 937 461 914 527 q 945 301 961 396 q 875 164 933 223 q 734 65 817 105 q 552 2 651 24 q 357 -25 453 -20 q 178 -16 261 -29 q 44 25 94 -4 l 33 1005 m 275 244 q 398 218 336 218 q 512 237 461 218 q 597 289 562 256 q 638 362 632 322 q 615 444 644 401 q 511 523 585 486 q 389 489 451 496 q 271 484 328 482 l 275 244 m 275 704 q 346 708 309 706 q 415 718 383 709 q 467 746 446 727 q 491 804 488 765 q 459 855 486 835 q 396 881 432 874 q 325 879 360 887 q 271 851 290 872 l 275 704 "},"…":{"x_min":52.1875,"x_max":997.109375,"ha":1038,"o":"m 179 -1 q 109 16 137 -1 q 67 62 81 35 q 52 121 52 89 q 65 181 51 153 q 107 229 78 208 q 179 253 135 249 q 250 234 222 253 q 292 187 279 215 q 305 127 306 160 q 289 66 303 94 q 247 18 275 37 q 179 -1 219 0 m 524 -1 q 455 16 482 -1 q 413 62 427 35 q 398 121 398 89 q 411 181 397 153 q 453 229 424 208 q 524 253 481 249 q 596 234 568 253 q 638 187 625 215 q 651 127 652 160 q 635 66 649 94 q 593 18 621 37 q 524 -1 565 0 m 870 -1 q 800 16 828 -1 q 758 62 773 35 q 744 121 744 89 q 756 181 743 153 q 798 229 770 208 q 870 253 827 249 q 942 234 914 253 q 984 187 971 215 q 996 127 998 160 q 981 66 995 94 q 939 18 967 37 q 870 -1 911 0 "},"?":{"x_min":39.765625,"x_max":710.78125,"ha":749,"o":"m 151 632 q 236 631 188 632 q 327 640 283 630 q 406 680 371 651 q 453 770 440 709 q 396 849 434 828 q 321 860 359 869 q 252 817 283 851 q 214 735 221 784 q 160 705 193 706 q 97 720 127 704 q 50 767 67 736 q 44 836 32 798 q 124 1013 66 946 q 255 1106 181 1079 q 410 1123 329 1133 q 557 1067 491 1112 q 667 945 623 1022 q 710 762 710 868 q 684 636 710 690 q 614 543 657 581 q 516 480 571 504 q 408 444 462 457 l 409 344 q 352 315 385 324 q 282 307 318 306 q 212 318 246 307 q 154 349 179 329 l 151 632 m 268 -10 q 198 7 226 -10 q 156 52 170 25 q 141 111 142 80 q 154 171 141 143 q 196 219 168 199 q 268 244 225 240 q 340 225 311 244 q 382 178 368 206 q 394 118 396 150 q 379 56 393 85 q 337 9 364 28 q 268 -10 309 -9 "},"H":{"x_min":35.265625,"x_max":816.671875,"ha":848,"o":"m 35 1044 q 64 1079 40 1064 q 122 1100 88 1093 q 197 1108 157 1108 q 272 1100 237 1108 q 333 1079 307 1093 q 367 1043 359 1064 l 374 630 l 504 628 l 510 1058 q 548 1088 520 1075 q 609 1107 575 1101 q 680 1111 642 1113 q 748 1100 717 1109 q 798 1072 778 1090 q 816 1026 817 1053 l 815 50 q 745 12 792 23 q 649 2 698 1 q 557 14 599 4 q 501 39 515 24 l 497 389 l 374 389 l 360 47 q 335 33 356 42 q 284 18 314 25 q 219 6 255 10 q 150 2 184 1 q 86 13 116 4 q 39 43 56 23 l 35 1044 "},"c":{"x_min":22.5625,"x_max":606.328125,"ha":609,"o":"m 23 406 q 56 566 25 491 q 134 699 86 642 q 242 790 183 756 q 364 824 302 823 q 486 786 427 824 q 592 661 546 747 q 585 598 598 629 q 548 546 572 568 q 493 516 523 524 q 432 516 462 507 q 402 573 419 557 q 368 587 385 590 q 335 566 351 584 q 305 523 318 549 q 282 468 291 497 q 272 412 274 439 q 281 351 269 381 q 314 306 293 321 q 364 298 336 291 q 423 347 392 305 q 469 371 439 371 q 528 357 499 371 q 580 319 557 343 q 606 275 603 295 q 501 113 562 173 q 373 31 439 52 q 242 23 306 9 q 127 86 177 37 q 48 216 77 135 q 23 406 18 297 "},"&":{"x_min":12.96875,"x_max":900.171875,"ha":933,"o":"m 14 237 q 44 353 18 293 q 109 472 70 413 q 198 586 149 531 q 295 686 246 641 q 240 838 246 760 q 263 978 234 915 q 354 1082 293 1041 q 499 1123 415 1123 q 622 1077 577 1123 q 674 963 667 1032 q 650 811 682 893 q 542 657 618 729 l 640 480 l 782 645 q 824 647 800 657 q 867 611 847 636 q 895 554 887 587 q 895 488 904 520 l 746 293 l 892 55 q 864 -2 889 17 q 809 -31 839 -23 q 750 -36 778 -39 q 714 -24 722 -33 l 606 158 q 486 52 553 93 q 352 -6 420 10 q 219 -17 283 -24 q 106 18 154 -10 q 32 103 58 48 q 14 237 6 158 m 387 515 q 322 439 352 482 q 275 353 293 396 q 254 276 257 310 q 267 229 250 241 q 316 216 288 212 q 375 236 344 219 q 434 278 405 252 q 488 333 463 303 l 387 515 m 481 954 q 444 932 457 956 q 429 878 432 908 q 432 822 425 847 q 453 794 438 796 q 482 817 470 793 q 500 872 495 842 q 501 927 505 902 q 481 954 497 953 "},"−":{"x_min":180.984375,"x_max":649.359375,"ha":708,"o":"m 250 295 q 208 315 223 297 q 185 360 192 333 q 181 416 179 386 q 192 472 184 446 q 214 514 200 497 q 246 531 229 531 l 598 537 q 638 493 626 529 q 649 416 651 457 q 634 341 647 375 q 600 299 621 306 l 250 295 "},"˝":{"x_min":41.765625,"x_max":642.953125,"ha":673,"o":"m 172 1203 q 220 1228 191 1224 q 276 1220 249 1233 q 323 1182 303 1208 q 343 1119 343 1157 l 199 892 q 140 872 172 866 q 83 899 108 877 q 46 949 58 921 q 50 996 35 978 l 172 1203 m 472 1180 q 520 1205 491 1201 q 576 1197 549 1209 q 623 1159 603 1185 q 642 1096 642 1133 l 499 869 q 440 849 472 843 q 383 876 408 854 q 346 926 358 897 q 349 973 335 954 l 472 1180 "},"I":{"x_min":19.640625,"x_max":700.640625,"ha":712,"o":"m 89 12 q 46 56 59 28 q 29 115 32 84 q 30 180 25 147 q 43 240 35 212 q 59 284 51 267 q 70 305 67 302 l 221 311 l 222 838 l 78 838 q 48 877 66 843 q 22 955 29 911 q 27 1042 14 999 q 92 1108 40 1085 l 633 1105 q 668 1052 653 1082 q 685 988 682 1022 q 676 915 687 953 q 633 838 664 877 l 474 841 l 480 310 l 660 310 q 680 268 667 303 q 698 187 693 233 q 695 93 704 141 q 651 13 686 46 l 89 12 "},"•":{"x_min":224.46875,"x_max":664.140625,"ha":716,"o":"m 444 313 q 324 345 373 313 q 250 423 275 377 q 224 525 225 470 q 248 630 223 580 q 321 714 272 679 q 444 755 370 748 q 569 721 520 754 q 642 640 618 689 q 663 536 666 592 q 636 431 661 480 q 563 349 611 382 q 444 313 515 316 "},"ˉ":{"x_min":76.546875,"x_max":544.90625,"ha":633,"o":"m 146 864 q 103 883 119 865 q 81 928 88 902 q 77 984 74 954 q 88 1040 80 1014 q 110 1083 96 1066 q 142 1100 124 1100 l 493 1105 q 534 1061 522 1097 q 544 984 546 1025 q 529 909 542 944 q 496 868 516 874 l 146 864 "},"G":{"x_min":30.3125,"x_max":903.390625,"ha":918,"o":"m 891 607 l 903 44 q 866 14 895 25 q 800 0 836 2 q 727 4 763 -2 q 672 31 691 10 l 672 126 q 478 17 568 43 q 317 8 389 -8 q 190 78 245 25 q 99 208 135 131 q 46 377 63 284 q 30 564 28 469 q 54 750 32 659 q 120 916 77 842 q 228 1039 164 990 q 381 1101 293 1089 q 493 1104 439 1109 q 593 1087 548 1100 q 674 1053 638 1074 q 733 1009 710 1033 q 745 978 741 999 q 746 928 748 956 q 735 872 744 900 q 712 822 727 843 q 676 789 698 800 q 625 786 653 778 q 478 801 538 809 q 381 764 419 793 q 323 691 343 735 q 296 600 303 647 q 290 510 288 553 q 297 436 293 466 q 341 330 306 373 q 423 276 377 288 q 520 284 469 263 q 611 367 571 305 l 515 358 q 457 371 478 355 q 424 414 435 387 q 413 472 413 440 q 418 533 412 504 q 435 584 424 562 q 461 613 446 606 l 891 607 "},"(":{"x_min":38.734375,"x_max":647.28125,"ha":688,"o":"m 617 96 q 627 -25 634 17 q 602 -90 619 -69 q 562 -118 584 -112 q 531 -128 541 -124 l 527 -128 q 352 -20 442 -90 q 191 140 263 50 q 77 333 120 230 q 39 538 33 436 q 91 748 44 641 q 212 945 138 855 q 380 1095 286 1034 q 575 1166 474 1155 q 620 1136 603 1163 q 643 1074 637 1109 q 645 1003 649 1039 q 628 950 641 968 q 596 939 621 950 q 537 906 571 927 q 465 851 504 884 q 394 775 427 819 q 335 677 360 732 q 303 557 310 622 q 326 423 297 495 q 404 287 356 352 q 509 170 451 222 q 617 96 567 119 "},"`":{"x_min":39.34375,"x_max":340.75,"ha":372,"o":"m 332 978 q 335 930 347 959 q 299 880 324 902 q 241 853 274 858 q 183 873 208 847 l 39 1100 q 58 1163 39 1138 q 105 1201 77 1189 q 162 1209 132 1214 q 210 1184 191 1205 l 332 978 "},"U":{"x_min":32.25,"x_max":806.734375,"ha":825,"o":"m 56 359 q 35 583 40 482 q 32 767 31 683 q 37 923 33 851 q 43 1060 42 995 q 69 1080 47 1068 q 120 1100 90 1091 q 186 1115 150 1109 q 255 1119 222 1120 q 316 1106 288 1117 q 359 1070 344 1094 q 362 904 363 990 q 358 735 360 817 q 354 577 355 652 q 362 442 354 501 q 391 345 371 383 q 448 299 411 307 q 500 344 481 302 q 527 477 519 386 q 535 714 535 568 q 529 1071 535 859 q 547 1087 530 1078 q 588 1104 564 1097 q 642 1116 613 1112 q 702 1116 672 1120 q 757 1098 732 1112 q 797 1058 782 1085 q 805 667 809 832 q 781 385 801 501 q 726 193 762 268 q 637 76 690 119 q 514 17 584 33 q 355 0 443 1 q 225 31 276 0 q 142 113 174 62 q 90 228 109 164 q 56 359 70 293 "},"F":{"x_min":31.203125,"x_max":680.765625,"ha":699,"o":"m 31 1106 l 588 1108 q 653 1064 630 1100 q 680 986 676 1029 q 664 900 683 942 q 603 834 645 858 l 355 830 l 355 706 l 554 704 q 611 655 598 689 q 621 583 625 621 q 604 513 618 546 q 580 467 590 480 l 355 458 l 349 47 q 320 17 343 31 q 265 -4 297 4 q 199 -14 234 -13 q 132 -8 164 -16 q 78 18 101 0 q 48 69 55 36 l 31 1106 "},"r":{"x_min":20.34375,"x_max":648.375,"ha":659,"o":"m 20 762 q 72 817 33 801 q 151 834 111 834 q 223 824 191 835 q 256 800 255 813 l 242 717 q 332 795 286 774 q 423 811 378 816 q 507 780 467 807 q 578 712 548 754 q 628 620 609 671 q 648 518 647 569 q 613 455 638 477 q 556 425 587 432 q 497 424 526 417 q 453 447 469 431 q 417 520 443 500 q 362 533 392 539 q 307 495 333 526 q 274 416 282 465 l 274 48 q 227 14 264 28 q 148 -3 191 0 q 68 3 105 -6 q 23 43 31 13 l 20 762 "},":":{"x_min":71.171875,"x_max":327.03125,"ha":377,"o":"m 198 211 q 128 229 155 211 q 86 275 100 248 q 71 334 71 302 q 84 394 70 366 q 126 442 97 421 q 198 466 154 462 q 269 446 241 465 q 311 400 298 428 q 324 340 325 373 q 308 279 322 307 q 266 231 294 250 q 198 211 238 212 m 200 557 q 130 575 158 557 q 88 621 103 594 q 73 680 74 648 q 86 739 73 712 q 128 788 100 767 q 200 812 157 808 q 272 792 244 811 q 314 746 301 774 q 326 686 328 718 q 311 625 325 653 q 269 577 297 596 q 200 557 241 558 "},"x":{"x_min":29.34375,"x_max":877.46875,"ha":905,"o":"m 436 253 l 272 -4 q 202 -7 240 -13 q 132 16 165 -1 q 75 63 100 35 q 43 128 51 92 l 246 390 l 29 675 q 39 715 27 694 q 73 755 51 736 q 121 790 94 774 q 174 818 147 807 q 226 834 202 830 q 265 835 250 839 l 439 600 l 629 816 q 680 824 648 827 q 743 805 712 822 q 798 760 774 789 q 827 689 823 731 l 611 442 l 866 180 q 868 115 887 150 q 815 53 850 81 q 740 10 781 25 q 675 1 699 -5 l 436 253 "},"*":{"x_min":73.890625,"x_max":788.6875,"ha":813,"o":"m 155 834 q 191 897 168 869 q 242 941 214 925 q 302 960 271 957 q 364 949 333 963 l 423 843 l 482 950 q 524 954 492 956 q 591 941 556 953 q 655 903 626 929 q 691 835 685 877 l 632 727 l 741 727 q 765 692 751 720 q 786 628 779 664 q 784 552 792 591 q 741 488 775 514 l 618 488 l 683 371 q 665 335 683 360 q 617 285 647 309 q 551 250 588 261 q 474 256 514 238 l 423 349 l 378 268 q 305 265 341 260 q 241 285 269 269 q 193 326 212 301 q 169 383 173 351 l 227 489 l 124 489 q 87 551 100 518 q 73 617 74 584 q 85 678 73 649 q 124 728 97 708 l 214 728 l 155 834 l 155 834 "},"∕":{"x_min":21.703125,"x_max":921.03125,"ha":950,"o":"m 260 0 q 193 -27 227 -21 q 126 -24 158 -32 q 67 4 94 -16 q 21 54 39 24 l 713 1093 q 781 1113 746 1113 q 846 1098 816 1113 q 897 1055 876 1083 q 921 988 918 1026 l 260 0 "},"V":{"x_min":24.421875,"x_max":953.578125,"ha":983,"o":"m 347 17 q 242 354 287 208 q 162 608 196 500 q 105 790 128 716 q 67 912 82 865 q 42 986 51 960 q 29 1025 33 1013 q 25 1040 25 1037 q 24 1043 24 1043 q 87 1081 43 1066 q 181 1101 131 1096 q 277 1102 230 1106 q 349 1082 324 1098 l 519 467 l 667 1082 q 700 1098 676 1090 q 754 1108 724 1105 q 818 1108 785 1110 q 880 1096 851 1106 q 929 1064 908 1085 q 953 1011 949 1044 l 722 23 q 682 12 710 17 q 617 2 653 6 q 539 -3 580 -1 q 461 -4 499 -5 q 392 2 423 -2 q 347 17 362 6 "},"h":{"x_min":18.984375,"x_max":667.484375,"ha":699,"o":"m 18 1047 q 65 1080 28 1063 q 146 1104 101 1097 q 233 1103 191 1112 q 295 1058 275 1094 l 291 704 q 457 838 383 824 q 579 769 530 853 q 651 504 629 685 q 664 55 674 324 q 614 20 649 33 q 541 3 579 6 q 471 8 503 0 q 431 39 439 16 q 428 201 427 122 q 430 345 430 280 q 425 457 430 411 q 408 519 421 503 q 367 517 394 535 q 294 435 340 499 l 287 36 q 221 4 259 13 q 146 -4 183 -5 q 78 4 109 -4 q 28 28 46 13 l 18 1047 "},"0":{"x_min":20.359375,"x_max":734.78125,"ha":757,"o":"m 341 -2 q 185 61 249 6 q 82 200 120 116 q 29 385 43 283 q 23 592 14 488 q 62 794 32 697 q 141 965 92 892 q 257 1079 189 1039 q 406 1109 324 1119 q 560 1043 496 1098 q 664 906 623 988 q 722 722 705 823 q 733 518 739 621 q 699 318 727 415 q 621 147 671 221 q 502 31 572 73 q 341 -2 432 -9 m 377 805 q 320 773 344 807 q 282 687 295 740 q 265 572 268 634 q 272 454 263 510 q 304 358 282 398 q 363 311 326 318 q 411 358 393 318 q 438 453 430 397 q 444 571 446 508 q 434 686 443 633 q 411 773 425 739 q 377 805 396 807 "},".":{"x_min":52.1875,"x_max":305.328125,"ha":346,"o":"m 179 -1 q 109 16 137 -1 q 67 62 81 35 q 52 121 52 89 q 65 181 51 153 q 107 229 78 208 q 179 253 135 249 q 250 234 222 253 q 292 187 279 215 q 305 127 306 160 q 289 66 303 94 q 247 18 275 37 q 179 -1 219 0 "},"”":{"x_min":81.671875,"x_max":814.6875,"ha":874,"o":"m 523 670 q 548 685 529 672 q 585 719 567 698 q 615 768 603 740 q 618 830 626 796 q 537 827 571 817 q 484 859 504 836 q 460 915 465 883 q 463 981 455 948 q 493 1045 472 1014 q 550 1096 515 1075 q 626 1113 585 1116 q 704 1088 667 1110 q 771 1025 741 1066 q 812 929 800 984 q 798 804 820 864 q 733 705 775 744 q 636 653 691 666 q 523 670 580 641 m 146 640 q 170 655 151 642 q 208 689 189 668 q 238 738 226 710 q 241 800 249 766 q 160 797 193 788 q 107 830 127 807 q 83 885 88 853 q 86 951 78 918 q 116 1015 94 984 q 173 1066 138 1045 q 249 1083 208 1086 q 327 1058 290 1081 q 394 995 364 1036 q 435 899 423 954 q 421 774 443 834 q 356 675 398 714 q 259 623 314 636 q 146 640 203 611 "},"@":{"x_min":43.25,"x_max":1378.15625,"ha":1424,"o":"m 930 39 q 977 -4 960 28 q 996 -78 995 -37 q 981 -156 998 -118 q 923 -218 964 -195 q 717 -241 824 -250 q 507 -189 610 -231 q 313 -76 404 -147 q 158 84 222 -5 q 63 280 94 174 q 48 496 32 385 q 113 708 66 614 q 229 874 161 803 q 384 996 298 946 q 564 1072 470 1045 q 758 1104 659 1100 q 954 1093 858 1109 q 1120 1032 1045 1077 q 1249 922 1195 988 q 1338 769 1304 855 q 1378 583 1371 682 q 1329 333 1375 435 q 1213 171 1283 231 q 1061 88 1143 111 q 905 73 979 65 q 777 120 831 82 q 709 217 722 157 q 590 166 645 164 q 494 205 535 169 q 429 298 453 241 q 405 409 405 355 q 432 543 405 480 q 501 651 459 606 q 596 716 543 695 q 698 721 648 736 l 698 752 q 738 769 704 767 q 811 762 773 770 q 882 737 850 754 q 916 698 914 720 q 872 459 873 545 q 893 341 870 374 q 954 318 916 307 q 1028 366 992 328 q 1089 465 1064 405 q 1109 590 1113 524 q 1070 747 1102 689 q 999 835 1037 805 q 925 874 960 865 q 878 887 891 884 q 714 889 804 906 q 541 822 623 873 q 399 687 459 771 q 322 485 339 602 q 330 307 309 386 q 398 171 352 229 q 507 76 443 113 q 642 23 571 39 q 789 10 714 6 q 930 39 864 14 m 706 541 q 674 541 693 546 q 640 520 656 535 q 612 478 623 504 q 600 419 600 453 q 632 364 600 375 q 709 382 663 352 l 706 541 "},"f":{"x_min":-6.328125,"x_max":740.625,"ha":662,"o":"m 48 416 q 15 446 31 416 q -4 514 0 476 q 0 589 -9 553 q 42 636 9 625 l 177 641 q 234 989 158 874 q 472 1104 310 1104 q 581 1085 531 1104 q 666 1030 630 1067 q 720 935 701 992 q 740 800 740 878 q 710 777 740 789 q 644 758 680 765 q 579 753 609 751 q 548 773 549 755 q 545 807 546 782 q 520 881 543 831 q 483 896 501 902 q 451 861 465 891 q 432 776 438 831 q 432 642 425 721 l 564 641 q 603 602 588 633 q 620 536 618 572 q 611 467 622 500 q 576 420 600 434 l 451 416 l 448 42 q 400 18 435 29 q 323 2 364 6 q 241 6 282 -1 q 174 39 200 13 l 173 416 l 48 416 "},";":{"x_min":84.609375,"x_max":374.859375,"ha":410,"o":"m 138 -116 q 157 -103 142 -113 q 187 -75 172 -93 q 211 -35 202 -58 q 214 13 221 -13 q 124 22 155 -1 q 86 84 92 46 q 98 164 80 122 q 160 230 116 206 q 221 244 188 246 q 284 224 255 242 q 338 172 314 206 q 373 94 362 139 q 361 -6 379 42 q 308 -87 343 -55 q 229 -129 274 -119 q 138 -116 184 -139 m 219 320 q 149 338 177 320 q 107 383 122 356 q 92 442 93 411 q 105 502 92 474 q 147 550 119 530 q 219 575 176 571 q 291 555 263 573 q 333 509 320 537 q 345 448 347 481 q 330 387 344 416 q 288 340 316 359 q 219 320 260 321 "},"“":{"x_min":53.4375,"x_max":786.453125,"ha":811,"o":"m 344 1063 q 320 1047 339 1060 q 282 1013 301 1034 q 252 965 264 992 q 249 903 241 937 q 330 906 297 915 q 383 873 363 896 q 407 817 402 850 q 404 752 412 785 q 374 687 396 718 q 317 637 352 656 q 241 619 282 617 q 163 644 200 622 q 96 708 126 667 q 55 804 67 748 q 69 929 47 869 q 134 1028 92 988 q 231 1079 176 1067 q 344 1063 287 1091 m 721 1093 q 697 1077 716 1090 q 659 1043 678 1064 q 630 994 641 1022 q 626 933 618 967 q 707 935 674 945 q 760 903 740 926 q 784 847 779 880 q 781 781 789 815 q 751 718 773 748 q 694 667 729 687 q 618 649 659 647 q 540 674 577 652 q 474 737 503 697 q 432 834 444 778 q 446 959 424 899 q 511 1058 469 1018 q 609 1109 553 1097 q 721 1093 664 1121 "},"i":{"x_min":33.90625,"x_max":320.125,"ha":358,"o":"m 33 796 q 99 828 58 816 q 183 840 141 841 q 262 824 226 839 q 314 777 298 809 l 320 77 q 269 27 307 43 q 185 12 230 12 q 99 26 141 12 q 39 65 58 40 l 33 796 m 196 896 q 109 916 142 897 q 61 963 75 935 q 49 1024 46 991 q 73 1084 52 1056 q 129 1131 93 1112 q 215 1154 165 1151 q 271 1134 249 1152 q 303 1088 293 1116 q 311 1028 313 1060 q 296 967 309 995 q 258 918 283 938 q 196 896 233 899 "},"6":{"x_min":34.59375,"x_max":744.234375,"ha":751,"o":"m 39 301 q 39 499 29 400 q 75 689 48 598 q 146 857 103 779 q 250 992 189 935 q 385 1081 310 1049 q 550 1112 461 1113 q 579 1087 560 1104 q 613 1045 598 1070 q 632 985 628 1020 q 615 908 636 950 q 483 869 543 907 q 380 779 423 831 q 315 673 337 727 q 297 588 293 619 q 453 680 381 660 q 580 681 524 699 q 674 615 636 663 q 731 501 713 567 q 742 363 748 436 q 703 222 736 290 q 608 99 670 154 q 451 16 546 44 q 304 16 374 4 q 179 65 234 29 q 86 160 123 100 q 39 301 50 219 m 351 282 q 404 261 373 256 q 463 292 436 267 q 501 356 489 318 q 496 434 514 394 q 448 449 478 454 q 391 422 417 444 q 350 362 364 400 q 351 282 336 325 "},"A":{"x_min":33.828125,"x_max":987.5,"ha":1013,"o":"m 392 54 q 339 15 374 28 q 265 0 305 2 q 183 2 225 -2 q 108 15 142 6 q 53 35 74 24 q 33 56 32 47 l 271 1009 q 320 1066 286 1044 q 398 1098 355 1087 q 490 1108 442 1108 q 580 1100 538 1108 q 653 1076 622 1091 q 694 1040 685 1060 l 987 43 q 895 2 938 13 q 811 -6 851 -8 q 733 5 771 -5 q 656 28 694 16 l 598 436 l 432 442 l 392 54 m 585 664 q 550 807 569 766 q 512 839 531 847 q 474 782 492 831 q 440 659 455 733 l 585 664 "},"‘":{"x_min":53.4375,"x_max":409.359375,"ha":444,"o":"m 344 670 q 231 653 287 641 q 134 705 176 666 q 69 804 92 744 q 55 929 47 864 q 96 1025 67 984 q 163 1088 126 1066 q 241 1113 200 1110 q 317 1096 282 1116 q 374 1045 352 1077 q 404 981 396 1014 q 407 915 412 948 q 383 859 402 883 q 330 827 363 836 q 249 830 297 817 q 252 768 241 796 q 282 719 264 740 q 320 685 301 698 q 344 670 339 672 "},"n":{"x_min":37.984375,"x_max":760.96875,"ha":787,"o":"m 511 52 q 506 274 510 173 q 484 438 503 375 q 426 518 466 501 q 310 485 386 534 l 314 52 q 280 21 303 33 q 229 3 257 9 q 170 -2 200 -2 q 112 5 139 -1 q 65 25 85 12 q 37 59 44 39 l 37 743 q 65 775 42 760 q 120 798 88 789 q 187 809 151 807 q 254 809 223 812 q 304 794 284 805 q 325 765 324 784 l 322 725 q 472 796 408 782 q 582 791 535 809 q 660 727 629 773 q 711 619 691 682 q 741 481 731 556 q 756 330 751 406 q 760 180 760 253 q 760 47 760 107 q 697 9 736 20 q 619 0 657 -1 q 549 14 580 1 q 511 52 518 28 "},"O":{"x_min":33.90625,"x_max":887.234375,"ha":902,"o":"m 33 504 q 73 752 33 640 q 180 946 112 865 q 339 1072 248 1028 q 533 1117 430 1117 q 698 1072 629 1117 q 811 950 767 1026 q 874 776 855 874 q 885 575 892 678 q 845 373 877 473 q 754 191 812 272 q 615 58 697 111 q 427 -2 533 5 q 268 37 340 -2 q 144 145 196 77 q 63 306 92 214 q 33 504 33 398 m 415 286 q 491 320 459 284 q 542 411 523 356 q 568 532 561 466 q 570 655 575 598 q 548 755 565 713 q 501 807 530 797 q 438 778 467 813 q 387 687 409 743 q 352 562 364 630 q 341 435 340 495 q 360 333 343 375 q 415 286 378 290 "},"3":{"x_min":27.125,"x_max":740.96875,"ha":765,"o":"m 27 303 q 44 344 28 322 q 80 384 59 366 q 125 415 101 402 q 166 428 149 427 q 241 341 188 374 q 349 304 294 309 q 449 324 405 299 q 499 411 493 349 q 488 491 503 447 q 443 563 474 534 q 366 599 412 592 q 263 572 321 606 q 196 598 221 577 q 160 644 170 618 q 153 696 150 670 q 172 741 157 722 l 328 870 l 71 870 q 39 928 50 896 q 31 992 28 960 q 54 1055 35 1025 q 111 1109 73 1086 l 603 1109 q 619 1075 610 1098 q 630 1022 628 1052 q 623 956 632 991 q 588 887 615 922 l 503 762 q 596 715 553 748 q 672 636 640 682 q 722 534 704 590 q 740 420 740 478 q 699 221 744 306 q 583 83 655 135 q 425 16 512 31 q 257 26 337 1 q 113 119 176 51 q 27 303 50 187 "},"]":{"x_min":35.921875,"x_max":496.453125,"ha":564,"o":"m 85 -215 q 41 -135 50 -183 q 37 -42 32 -88 q 56 39 43 4 q 75 81 69 74 l 256 81 l 261 1040 l 103 1037 q 60 1115 71 1077 q 51 1187 48 1152 q 68 1252 54 1222 q 103 1304 82 1281 l 496 1307 l 496 -225 l 85 -215 "},"m":{"x_min":31.203125,"x_max":932.046875,"ha":952,"o":"m 31 773 q 90 811 56 798 q 158 828 124 824 q 223 824 192 831 q 275 804 255 817 l 275 751 q 354 800 314 779 q 429 824 393 822 q 497 803 465 826 q 554 721 529 781 q 730 810 653 797 q 855 750 807 823 q 923 504 904 676 q 922 39 941 332 q 851 -4 891 2 q 775 -5 812 -12 q 712 18 739 1 q 682 47 686 35 q 668 210 671 141 q 663 326 666 279 q 655 399 660 373 q 633 432 649 425 q 609 406 618 428 q 593 351 599 385 q 583 276 587 317 q 577 191 580 234 q 572 109 575 149 q 564 42 569 70 q 526 18 552 25 q 472 12 500 12 q 419 18 444 12 q 385 35 394 24 q 382 212 382 134 q 379 346 382 291 q 368 431 377 401 q 340 462 360 461 q 316 425 324 454 q 306 358 309 397 q 303 271 303 318 q 303 181 303 225 q 303 99 303 137 q 297 39 302 61 q 265 22 288 29 q 213 10 242 14 q 151 3 184 5 q 92 4 119 1 q 48 14 66 6 q 31 35 31 21 l 31 773 "},"9":{"x_min":20.890625,"x_max":691.875,"ha":724,"o":"m 402 473 q 295 451 349 453 q 193 465 241 448 q 105 517 145 481 q 44 610 66 553 q 22 760 14 687 q 66 895 29 832 q 162 1005 103 957 q 295 1082 222 1053 q 408 1102 354 1104 q 509 1077 462 1100 q 592 1011 556 1053 q 652 911 629 969 q 670 846 661 878 q 683 770 678 813 q 691 666 689 727 q 689 519 693 606 q 677 312 686 432 q 652 29 668 192 q 619 3 653 16 q 539 -12 585 -9 q 446 -4 492 -16 q 377 40 400 6 l 402 473 m 333 877 q 284 856 305 874 q 250 813 263 838 q 234 760 237 788 q 240 710 231 732 q 271 673 249 687 q 330 661 294 659 q 375 685 356 666 q 405 729 394 704 q 418 782 416 754 q 412 833 420 811 q 384 868 404 855 q 333 877 364 881 "},"l":{"x_min":33.90625,"x_max":332.328125,"ha":358,"o":"m 332 44 q 290 14 325 28 q 209 -3 255 0 q 117 4 164 -6 q 40 47 70 14 l 33 1037 q 58 1079 36 1063 q 110 1102 80 1096 q 175 1107 141 1109 q 240 1093 210 1105 q 291 1060 271 1081 q 314 1007 311 1039 q 320 771 320 892 q 322 526 321 649 q 324 281 322 402 q 332 44 325 160 "},"8":{"x_min":12.140625,"x_max":811.9375,"ha":827,"o":"m 382 2 q 240 33 307 4 q 121 109 172 62 q 40 217 70 155 q 12 344 10 278 q 49 477 13 411 q 166 602 85 543 q 92 704 115 648 q 71 819 70 760 q 96 931 73 877 q 158 1026 119 984 q 250 1092 198 1068 q 364 1113 302 1116 q 489 1082 432 1110 q 588 1011 546 1053 q 655 917 630 968 q 682 816 679 866 q 666 723 686 766 q 600 656 647 680 q 752 556 702 619 q 810 419 803 493 q 787 270 817 345 q 699 134 756 195 q 559 37 641 74 q 382 2 477 0 m 420 501 q 364 481 390 500 q 321 434 339 462 q 297 375 303 406 q 301 316 291 343 q 338 274 310 290 q 417 260 366 257 q 469 276 447 260 q 502 316 491 291 q 516 369 514 340 q 508 425 518 398 q 477 473 499 453 q 420 501 455 493 m 379 935 q 328 912 349 930 q 296 872 307 895 q 282 823 284 849 q 289 776 280 797 q 318 741 298 755 q 373 729 339 728 q 408 741 392 727 q 434 778 424 755 q 449 829 444 801 q 448 881 454 857 q 425 920 442 904 q 379 935 409 935 "},"p":{"x_min":25.765625,"x_max":751.171875,"ha":777,"o":"m 25 785 q 94 843 55 832 q 170 846 134 854 q 235 818 207 838 q 269 784 263 798 l 274 728 q 365 788 314 766 q 468 815 416 811 q 571 807 520 820 q 660 763 621 794 q 724 678 699 731 q 750 553 748 626 q 742 426 754 497 q 705 286 731 355 q 638 156 679 217 q 543 61 598 96 q 421 26 489 27 q 275 74 354 25 l 291 -512 q 244 -543 276 -533 q 173 -555 211 -554 q 97 -548 135 -556 q 33 -522 59 -539 l 25 785 m 335 378 q 389 327 360 337 q 444 330 419 317 q 487 375 470 343 q 505 453 504 408 q 493 523 507 497 q 457 557 478 549 q 409 556 435 565 q 364 524 383 548 q 335 464 345 501 q 335 378 325 427 "},"4":{"x_min":28.484375,"x_max":716.9375,"ha":730,"o":"m 375 522 l 28 527 l 31 1055 q 45 1077 29 1067 q 84 1095 61 1087 q 137 1105 108 1102 q 192 1104 166 1108 q 238 1087 218 1100 q 263 1053 257 1075 q 262 992 263 1030 q 261 914 261 954 q 261 836 261 874 q 260 775 260 798 l 377 777 l 379 1052 q 427 1089 394 1072 q 498 1109 461 1105 q 569 1101 535 1113 q 621 1053 603 1089 l 621 775 l 687 778 q 710 728 704 766 q 716 649 717 690 q 706 573 716 607 q 679 530 697 538 q 663 529 668 530 q 653 529 657 529 q 642 528 648 529 q 625 527 637 527 l 626 54 q 577 16 610 29 q 509 2 545 4 q 439 8 473 0 q 386 33 405 16 l 375 522 "},"R":{"x_min":31.203125,"x_max":900.6875,"ha":905,"o":"m 43 987 q 183 1056 104 1026 q 346 1100 261 1086 q 514 1108 431 1115 q 666 1072 598 1102 q 783 982 735 1041 q 846 830 831 923 q 829 739 846 782 q 786 657 812 697 q 725 579 759 617 q 657 507 691 542 l 900 150 q 844 72 885 101 q 750 28 803 43 q 640 8 697 13 q 538 2 583 4 l 339 397 l 341 33 q 275 -21 325 -6 q 170 -31 225 -36 q 73 -4 115 -25 q 31 48 31 17 l 43 987 m 329 694 q 385 693 351 689 q 455 711 420 697 q 518 751 489 725 q 556 817 546 777 q 537 867 558 849 q 482 893 516 885 q 406 895 448 900 q 326 874 364 891 l 329 694 "},"o":{"x_min":34.046875,"x_max":644.5625,"ha":686,"o":"m 305 5 q 159 50 217 10 q 71 149 101 89 q 35 284 42 210 q 43 436 29 359 q 88 586 56 514 q 166 714 120 659 q 267 800 211 769 q 385 826 322 831 q 507 786 455 823 q 590 689 558 748 q 635 556 622 630 q 642 406 648 482 q 613 258 637 330 q 545 128 588 185 q 442 37 503 71 q 305 5 382 4 m 362 576 q 322 557 339 579 q 296 501 306 535 q 282 426 286 467 q 280 348 278 385 q 292 286 283 311 q 318 257 302 260 q 356 274 340 252 q 381 330 371 295 q 393 406 390 364 q 394 486 396 448 q 383 549 392 523 q 362 576 375 575 "},"5":{"x_min":19.421875,"x_max":706.703125,"ha":719,"o":"m 24 341 q 29 411 12 379 q 77 458 47 442 q 140 473 107 474 q 193 443 173 472 q 236 339 202 383 q 310 280 269 295 q 388 287 351 265 q 440 383 425 309 q 396 494 438 453 q 292 560 354 535 q 162 597 231 584 q 37 622 93 610 l 35 1097 l 625 1104 q 655 1052 644 1087 q 670 978 667 1017 q 668 905 674 940 q 647 857 661 870 l 321 851 l 320 763 q 442 722 374 751 q 568 649 510 694 q 666 545 626 604 q 706 413 706 485 q 661 206 706 293 q 545 69 615 119 q 391 8 474 18 q 231 29 307 -2 q 99 139 155 62 q 24 341 42 215 "}}}
